<svg xmlns="http://www.w3.org/2000/svg" width="260" height="58" viewBox="0 0 260 58"><defs><style>.a,.f{fill:#11523b;}.a{font-size:29px;font-family:Raleway-Light, Raleway;font-weight:300;letter-spacing:-0.05em;}.b,.i{fill:#329ba3;}.b{font-family:Raleway-ExtraBold, Raleway;font-weight:800;}.c{fill:#141414;font-size:13px;font-family:Raleway-Bold, Raleway;font-weight:700;letter-spacing:0.133em;}.d{fill:#faf238;}.e{fill:none;}.g{fill:#fff;}.h,.i{stroke:none;}</style></defs><g transform="translate(-83 -51)"><text class="a" transform="translate(252 83)"><tspan x="-89.769" y="0">RENOVA-</tspan><tspan class="b" y="0">FIDA</tspan></text><text class="c" transform="translate(164 101)"><tspan x="0" y="0">ENERGIAS RENOVÁVEIS</tspan></text><path class="d" d="M210.5,58A26.477,26.477,0,0,1,184,31.5a26.673,26.673,0,0,1,.6-5.616A14,14,0,0,0,203.454,5.947,26.49,26.49,0,0,1,237,31.5c0,.6-.021,1.216-.061,1.818a14,14,0,0,0-15.91,22.508A26.319,26.319,0,0,1,210.5,58Z" transform="translate(-96 50)"/><g class="e" transform="translate(-98 50)"><path class="h" d="M210.5,58A26.477,26.477,0,0,1,184,31.5a26.673,26.673,0,0,1,.6-5.616A14,14,0,0,0,203.454,5.947,26.49,26.49,0,0,1,237,31.5c0,.6-.021,1.216-.061,1.818a14,14,0,0,0-15.91,22.508A26.319,26.319,0,0,1,210.5,58Z"/><path class="i" d="M 210.5001068115234 56.99960327148438 C 213.5486450195312 56.99960327148438 216.5133972167969 56.47190856933594 219.3326110839844 55.42931365966797 C 217.1740264892578 52.76714706420898 215.9999084472656 49.46995162963867 215.9999084472656 45.99990463256836 C 215.9999084472656 41.99332427978516 217.5602722167969 38.22658538818359 220.3935699462891 35.3935546875 C 223.2267913818359 32.56058502197266 226.9936676025391 31.00040435791016 231.0003051757812 31.00040435791016 C 232.7248687744141 31.00040435791016 234.3998565673828 31.28641891479492 235.997314453125 31.85221290588379 C 235.9989166259766 31.73461723327637 235.9997253417969 31.61716079711914 235.9997253417969 31.50000381469727 C 235.9997253417969 28.05704307556152 235.3256683349609 24.71761322021484 233.9963073730469 21.57450294494629 C 232.7120513916016 18.53811454772949 230.8733367919922 15.81098365783691 228.53125 13.4688835144043 C 226.1890869140625 11.12675380706787 223.4619598388672 9.288033485412598 220.4255981445312 8.003813743591309 C 217.2825012207031 6.67444372177124 213.9430847167969 6.000403881072998 210.5001068115234 6.000403881072998 C 208.6571807861328 6.000403881072998 206.8272857666016 6.196916580200195 205.0428314208984 6.585592269897461 C 206.3272857666016 8.837306976318359 207.0000915527344 11.37350654602051 207.0000915527344 14.00040340423584 C 207.0000915527344 18.00697326660156 205.4397277832031 21.77371406555176 202.6064453125 24.60675430297852 C 199.7732238769531 27.43972396850586 196.00634765625 28.99990463256836 191.9997100830078 28.99990463256836 C 189.6689758300781 28.99990463256836 187.386962890625 28.46214294433594 185.3219757080078 27.43470001220703 C 185.1078186035156 28.7736701965332 184.9996185302734 30.13575744628906 184.9996185302734 31.50000381469727 C 184.9996185302734 34.9429931640625 185.6737213134766 38.28240203857422 187.0031585693359 41.42548370361328 C 188.2874603271484 44.46184539794922 190.1262817382812 47.18896484375 192.4685211181641 49.53110504150391 C 194.8107757568359 51.87323379516602 197.5380096435547 53.71195220947266 200.5744476318359 54.99619293212891 C 203.7176513671875 56.32555389404297 207.05712890625 56.99960327148438 210.5001068115234 56.99960327148438 M 210.5001068115234 57.99960327148438 C 206.9225616455078 57.99960327148438 203.4520416259766 57.29898452758789 200.1849212646484 55.91720199584961 C 197.0292510986328 54.58254241943359 194.1951904296875 52.6718635559082 191.7614288330078 50.23823547363281 C 189.3276519775391 47.8045654296875 187.4168701171875 44.9705924987793 186.0821533203125 41.81504440307617 C 184.7002868652344 38.54802322387695 183.9996185302734 35.07754516601562 183.9996185302734 31.50000381469727 C 183.9996185302734 29.60717391967773 184.2002105712891 27.71773338317871 184.5958557128906 25.88417434692383 C 186.8123321533203 27.26807403564453 189.3720245361328 27.99990463256836 191.9997100830078 27.99990463256836 C 195.7392578125 27.99990463256836 199.2550201416016 26.54372406005859 201.8993682861328 23.89961433410645 C 204.5437622070312 21.25545310974121 206.0000915527344 17.73984336853027 206.0000915527344 14.00040340423584 C 206.0000915527344 11.09702396392822 205.1195678710938 8.312343597412109 203.4536895751953 5.947393894195557 C 205.7398986816406 5.318493843078613 208.1104736328125 5.000403881072998 210.5001068115234 5.000403881072998 C 214.07763671875 5.000403881072998 217.5481109619141 5.701023578643799 220.8151397705078 7.082803726196289 C 223.970703125 8.417444229125977 226.8046875 10.32813358306885 229.2383575439453 12.76177406311035 C 231.6719665527344 15.19539356231689 233.5826416015625 18.02936363220215 234.9173126220703 21.18496322631836 C 236.2991027832031 24.45201301574707 236.9997253417969 27.92249298095703 236.9997253417969 31.50000381469727 C 236.9997253417969 32.10444259643555 236.9790496826172 32.71624374389648 236.9382781982422 33.31841278076172 C 235.0740966796875 32.44412231445312 233.0767517089844 32.00040435791016 231.0003051757812 32.00040435791016 C 227.2607574462891 32.00040435791016 223.7449798583984 33.45658493041992 221.1006469726562 36.10069274902344 C 218.4562377929688 38.74485397338867 216.9999084472656 42.26046371459961 216.9999084472656 45.99990463256836 C 216.9999084472656 49.70050430297852 218.4303741455078 53.19019317626953 221.0278167724609 55.82613372802734 C 217.6986236572266 57.26888275146484 214.1566925048828 57.99960327148438 210.5001068115234 57.99960327148438 Z"/></g><circle class="f" cx="13" cy="13" r="13" transform="translate(122 83)"/><circle class="f" cx="13" cy="13" r="13" transform="translate(83 51)"/><g transform="translate(123.352 87.488)"><path class="g" d="M19.19,13.7a.327.327,0,1,0,0-.654H17.328v-.428a.517.517,0,0,0-.517-.517H15.661a.517.517,0,0,0-.515.483h-.929a1.583,1.583,0,0,0-1.578,1.509h-5.9a1.469,1.469,0,0,1,0-2.938H16.72a1.557,1.557,0,0,0,0-3.115H11.942a.371.371,0,0,1-.37-.371V5.794a7.236,7.236,0,0,0,2.047.308A6.211,6.211,0,0,0,14.732,6a.327.327,0,0,0-.117-.643,6.033,6.033,0,0,1-2.552-.11L15.6,3.206a.327.327,0,0,0-.327-.566L11.738,4.682a5.551,5.551,0,0,1,2.485-3.36A5.68,5.68,0,0,1,18.812.973a5.966,5.966,0,0,1-1.85,3.271.327.327,0,1,0,.428.495A6.713,6.713,0,0,0,19.512.814.327.327,0,0,0,19.3.446a6.408,6.408,0,0,0-5.4.309,6.079,6.079,0,0,0-2.651,3.324A6.08,6.08,0,0,0,8.594.755,6.409,6.409,0,0,0,3.19.446a.327.327,0,0,0-.213.368A6.415,6.415,0,0,0,5.95,5.343,5.784,5.784,0,0,0,8.866,6.1a7.315,7.315,0,0,0,2.052-.305V7.67a1.025,1.025,0,0,0,1.024,1.025H16.72a.9.9,0,0,1,0,1.807H6.739a2.123,2.123,0,0,0,0,4.246h5.9a1.582,1.582,0,0,0,1.578,1.509h.929a.517.517,0,0,0,.515.483h1.151a.517.517,0,0,0,.517-.516v-.429H19.19a.327.327,0,0,0,0-.654H17.328V13.7H19.19Zm-12.3-10.5,3.536,2.043a5.547,5.547,0,0,1-4.149-.472,5.687,5.687,0,0,1-2.6-3.8,5.681,5.681,0,0,1,4.589.349,5.551,5.551,0,0,1,2.485,3.36L7.216,2.639a.327.327,0,1,0-.327.566Zm8.255,12.4h-.927a.928.928,0,0,1-.926-.927v-.509a.928.928,0,0,1,.926-.928h.927Zm1.53.483H15.8v-3.33h.876Z" transform="translate(0 0)"/><path class="g" d="M392.419,150.468a.327.327,0,0,0,.462.462h0a.327.327,0,0,0-.463-.462Z" transform="translate(-376.622 -145.456)"/></g><g transform="translate(88 55.996)"><path class="g" d="M16.263,2.872a7.6,7.6,0,0,0-10.439-1.4L5.156.637a.3.3,0,0,0-.505.069l-1.823,4.3a.3.3,0,0,0,.325.408l4.6-.81a.3.3,0,0,0,.181-.477L7.276,3.3a5.265,5.265,0,0,1,5.133-.536.3.3,0,1,0,.235-.545,5.858,5.858,0,0,0-5.974.795.3.3,0,0,0-.047.417l.539.677-3.573.629L5,1.4l.539.677a.3.3,0,0,0,.417.047A7,7,0,0,1,17.3,8.2l-1.171.206a5.841,5.841,0,0,0-1.219-4.456.3.3,0,0,0-.464.369,5.253,5.253,0,0,1,1.027,4.39.3.3,0,0,0,.29.359c.017,0,1.861-.323,1.861-.323a.3.3,0,0,0,.243-.258,7.543,7.543,0,0,0-1.6-5.618Z" transform="translate(-2.721 0)"/><path class="g" d="M14.764,197.156l-4.6.809a.3.3,0,0,0-.181.477l.66.83a5.239,5.239,0,0,1-2.746.956v-3.9a3.755,3.755,0,0,0,.9.114,3.049,3.049,0,0,0,1.537-.4,3.361,3.361,0,0,0,1.561-2.371.3.3,0,0,0-.193-.334,3.361,3.361,0,0,0-2.834.166,3.117,3.117,0,0,0-1.27,1.435,3.117,3.117,0,0,0-1.27-1.435,3.361,3.361,0,0,0-2.834-.166.3.3,0,0,0-.193.334,3.361,3.361,0,0,0,1.561,2.371,3.049,3.049,0,0,0,1.537.4,3.754,3.754,0,0,0,.9-.114v3.9a5.263,5.263,0,0,1-4.853-6.367.3.3,0,0,0-.341-.355L.3,193.825a.3.3,0,0,0-.243.258,7.6,7.6,0,0,0,6.685,8.437,7.717,7.717,0,0,0,.874.05,7.532,7.532,0,0,0,4.479-1.472l.668.84a.3.3,0,0,0,.505-.069l1.823-4.3a.3.3,0,0,0-.325-.408Zm-5.6-3.139a2.7,2.7,0,0,1,2.09-.2,2.7,2.7,0,0,1-1.218,1.71,2.7,2.7,0,0,1-2.091.2A2.7,2.7,0,0,1,9.165,194.017Zm-4.006,1.511a2.7,2.7,0,0,1-1.218-1.71,2.7,2.7,0,0,1,2.09.2,2.7,2.7,0,0,1,1.218,1.711A2.7,2.7,0,0,1,5.159,195.528Zm7.755,5.647-.539-.677a.3.3,0,0,0-.417-.047A7,7,0,0,1,.621,194.37l1.171-.206a5.864,5.864,0,0,0,9.455,5.394.3.3,0,0,0,.048-.417l-.539-.678,3.573-.628Z" transform="translate(0 -187.37)"/><path class="g" d="M360.017,97.459a.3.3,0,1,0-.21-.088h0A.3.3,0,0,0,360.017,97.459Z" transform="translate(-349.044 -93.987)"/></g><circle class="d" cx="3.5" cy="3.5" r="3.5" transform="translate(88 91)"/><circle class="d" cx="3.5" cy="3.5" r="3.5" transform="translate(128 60)"/></g></svg>