<svg xmlns="http://www.w3.org/2000/svg" width="58.171" height="38.625" viewBox="0 0 58.171 38.625"><defs><style>.a{fill:#d5d5d5;}.b{fill:#b4b1a7;}.c{fill:#4d5760;}.d{fill:#efefef;}.e{fill:#dcdcdc;}</style></defs><g transform="translate(0 0)"><path class="a" d="M57.717,124.645H.454A.454.454,0,0,1,0,124.19V86.474a.454.454,0,0,1,.454-.454H57.717a.454.454,0,0,1,.454.454V124.19A.454.454,0,0,1,57.717,124.645Z" transform="translate(0 -86.02)"/><path class="b" d="M68.6,138.609l20.859-14.545a.454.454,0,0,1,.52,0l20.859,14.545a.454.454,0,0,1,0,.746L89.983,153.9a.454.454,0,0,1-.52,0L68.6,139.355A.454.454,0,0,1,68.6,138.609Z" transform="translate(-60.637 -119.67)"/><ellipse class="c" cx="8.427" cy="8.427" rx="8.427" ry="8.427" transform="translate(20.658 10.885)"/><path class="d" d="M183.12,216.738l16.275,4.227a8.414,8.414,0,0,0,.432-2.664,8.513,8.513,0,0,0-.044-.862l-15.286-3.97A8.379,8.379,0,0,0,183.12,216.738Z" transform="translate(-162.315 -198.988)"/><path class="e" d="M297.539,243.661l3.275.851a8.415,8.415,0,0,0,.432-2.664,8.522,8.522,0,0,0-.044-.862l-3.664-.952a8.474,8.474,0,0,1,0,3.628Z" transform="translate(-263.734 -222.535)"/></g></svg>