<svg xmlns="http://www.w3.org/2000/svg" width="32.594" height="46.594" viewBox="0 0 32.594 46.594">
  <path id="Path_275" data-name="Path 275" d="M23.844-30.844A5.871,5.871,0,0,0,28-29.2a5.587,5.587,0,0,0,4.1-1.7A5.587,5.587,0,0,0,33.8-35a5.587,5.587,0,0,0-1.7-4.1A5.587,5.587,0,0,0,28-40.8a5.587,5.587,0,0,0-4.1,1.7A5.587,5.587,0,0,0,22.2-35,5.871,5.871,0,0,0,23.844-30.844ZM16.406-46.484A15.8,15.8,0,0,1,28-51.3a15.713,15.713,0,0,1,11.539,4.758A15.713,15.713,0,0,1,44.3-35a21.873,21.873,0,0,1-1.7,7.766,47.873,47.873,0,0,1-4.1,8.2q-2.406,3.828-4.758,7.164t-3.992,5.3L28-4.7q-.656-.766-1.75-2.023t-3.937-5.031a84.3,84.3,0,0,1-4.977-7.328,53.221,53.221,0,0,1-3.883-8.039A22.128,22.128,0,0,1,11.7-35,15.624,15.624,0,0,1,16.406-46.484Z" transform="translate(-11.703 51.297)" fill="#4d4d4d"/>
</svg>
