<svg id="Layer_1" data-name="Layer 1" xmlns="http://www.w3.org/2000/svg" viewBox="0 0 32.61 46.6"><defs><style>.cls-1{fill:#fa4646;}</style></defs><title>place_01</title><path id="Path_275" data-name="Path 275" class="cls-1" d="M12.14,20.45A5.87,5.87,0,0,0,16.3,22.1a5.8,5.8,0,0,0,5.8-5.8,5.8,5.8,0,0,0-5.8-5.8,5.8,5.8,0,0,0-5.8,5.8A5.88,5.88,0,0,0,12.14,20.45ZM4.7,4.81A15.82,15.82,0,0,1,16.3,0,15.67,15.67,0,0,1,27.84,4.76,15.73,15.73,0,0,1,32.6,16.3a22,22,0,0,1-1.7,7.76,47.93,47.93,0,0,1-4.1,8.2c-1.61,2.56-3.19,4.94-4.76,7.17s-2.9,4-4,5.3L16.3,46.6l-1.75-2q-1.1-1.24-3.94-5a84.18,84.18,0,0,1-5-7.32,54.58,54.58,0,0,1-3.88-8A22.07,22.07,0,0,1,0,16.3,15.64,15.64,0,0,1,4.7,4.81Z" transform="translate(0.01 0.01)"/></svg>